<svg width="142" height="71" viewBox="0 0 142 71" fill="none" xmlns="http://www.w3.org/2000/svg">
<path d="M0 71V0H4.99219V71H0ZM7.44862 70.9495V0H9.98438V70.9495H7.44862ZM14.9766 70.9495V0H17.433V70.9495H14.9766ZM27.4174 70.9495V0H29.8738V70.9495H27.4174ZM37.4017 70.9495V0H42.3146V70.9495H37.4017ZM49.8426 70.9495V0H52.299V70.9495H49.8426ZM54.8347 70.9495V0H57.2912V70.9495H54.8347ZM59.8269 70.9495V0H62.2834V70.9495H59.8269ZM69.7323 70.9495V0H74.7244V70.9495H69.7323ZM82.1731 70.9495V0H87.1653V70.9495H82.1731ZM92.1572 70.9495V0H97.1496V70.9495H92.1572ZM102.142 70.9495V0H107.134V70.9495H102.142ZM109.59 70.9495V0H114.583V70.9495H109.59ZM122.111 70.9495V0H129.559V70.9495H122.111ZM132.016 70.9495V0H134.551V70.9495H132.016ZM137.008 71V0H142V71H137.008Z" fill="black"/>
</svg>
