<svg width="75" height="19" viewBox="0 0 75 19" fill="none" xmlns="http://www.w3.org/2000/svg">
<path d="M13.6837 1.43001C12.8056 0.429108 11.2182 -4.41352e-06 9.18752 -4.41352e-06H3.29382C3.09279 -0.00011142 2.89833 0.071532 2.74543 0.202031C2.59252 0.33253 2.49121 0.513315 2.45973 0.711857L0.00676992 16.2768C-0.00460408 16.349 -0.000189429 16.4228 0.01971 16.4932C0.0396094 16.5635 0.0745205 16.6287 0.122038 16.6842C0.169555 16.7398 0.228549 16.7844 0.294956 16.8149C0.361362 16.8455 0.433602 16.8612 0.506699 16.8612H4.14522L5.05904 11.0651L5.03072 11.2466C5.0616 11.0484 5.16223 10.8678 5.31448 10.7373C5.46673 10.6068 5.6606 10.5349 5.86113 10.5347H7.59016C10.9868 10.5347 13.6465 9.15505 14.4234 5.16401C14.4465 5.04598 14.4664 4.93109 14.4837 4.81883C14.7145 3.3437 14.4822 2.33964 13.6843 1.43054" fill="#003087"/>
<path d="M58.2272 8.83665C58.0048 10.2971 56.8895 10.2971 55.811 10.2971H55.1972L55.6279 7.5703C55.6541 7.40558 55.7958 7.2844 55.9626 7.2844H56.2443C56.9787 7.2844 57.6722 7.2844 58.03 7.7025C58.2435 7.95272 58.308 8.32413 58.2272 8.83665ZM57.7577 5.02607H53.689C53.5543 5.02613 53.424 5.07423 53.3215 5.16172C53.219 5.24921 53.151 5.37036 53.1298 5.50344L51.4858 15.9358C51.4782 15.9842 51.4812 16.0336 51.4945 16.0807C51.5079 16.1278 51.5312 16.1715 51.563 16.2087C51.5948 16.246 51.6343 16.2759 51.6787 16.2964C51.7231 16.3169 51.7715 16.3276 51.8205 16.3277H53.9083C54.1029 16.3277 54.2687 16.1861 54.2991 15.9941L54.766 13.0354C54.809 12.7611 55.0461 12.558 55.3242 12.558H56.6115C59.2921 12.558 60.8386 11.2618 61.2425 8.69081C61.4245 7.56715 61.2499 6.68375 60.7237 6.06527C60.1451 5.38541 59.1195 5.02554 57.7582 5.02554" fill="#009CDE"/>
<path d="M29.2072 8.83667C28.9847 10.2971 27.8695 10.2971 26.7904 10.2971H26.1766L26.6073 7.57033C26.6335 7.40561 26.7752 7.28443 26.942 7.28443H27.2237C27.9581 7.28443 28.6516 7.28443 29.0094 7.70252C29.2234 7.95275 29.2879 8.32416 29.2072 8.83667ZM28.7376 5.02609H24.669C24.3909 5.02609 24.1538 5.22858 24.1103 5.50346L22.4657 15.9359C22.4581 15.9843 22.461 16.0337 22.4743 16.0809C22.4876 16.128 22.5109 16.1717 22.5427 16.2089C22.5746 16.2462 22.6141 16.2761 22.6585 16.2966C22.703 16.3171 22.7514 16.3277 22.8004 16.3277H24.7435C25.0215 16.3277 25.2581 16.1253 25.3016 15.8504L25.7459 13.036C25.789 12.7611 26.0261 12.5586 26.3041 12.5586H27.5914C30.2721 12.5586 31.8185 11.2618 32.2225 8.69084C32.4045 7.56718 32.2298 6.68378 31.7036 6.06529C31.125 5.38543 30.0995 5.02557 28.7382 5.02557M38.1838 12.5822C37.995 13.6954 37.1121 14.4429 35.9848 14.4429C35.4198 14.4429 34.9671 14.2609 34.6765 13.9168C34.3879 13.5758 34.2799 13.0895 34.3712 12.5486C34.5464 11.4449 35.4445 10.6738 36.5545 10.6738C37.1079 10.6738 37.5564 10.8574 37.8533 11.2046C38.1518 11.5545 38.2693 12.0435 38.1838 12.5822ZM40.8991 8.78946H38.9508C38.8698 8.78937 38.7914 8.81824 38.7299 8.87086C38.6683 8.92348 38.6276 8.99639 38.615 9.07641L38.5301 9.62093L38.3937 9.42368C37.9719 8.81149 37.0313 8.60638 36.0923 8.60638C33.94 8.60638 32.1013 10.2378 31.7435 12.525C31.5573 13.667 31.8217 14.7577 32.469 15.5188C33.0634 16.2181 33.9116 16.5092 34.9225 16.5092C36.6578 16.5092 37.6199 15.395 37.6199 15.395L37.5328 15.9364C37.5252 15.9848 37.5281 16.0343 37.5414 16.0815C37.5548 16.1287 37.5782 16.1724 37.61 16.2097C37.6419 16.2469 37.6815 16.2768 37.726 16.2973C37.7706 16.3178 37.819 16.3283 37.868 16.3283H39.6222C39.9003 16.3283 40.1374 16.1263 40.1809 15.8509L41.2343 9.18185C41.2419 9.1334 41.2389 9.08388 41.2255 9.0367C41.2121 8.98952 41.1886 8.94581 41.1567 8.90857C41.1248 8.87132 41.0852 8.84144 41.0406 8.82097C40.9961 8.8005 40.9476 8.78993 40.8986 8.78999" fill="#003087"/>
<path d="M67.2039 12.5822C67.0151 13.6954 66.1322 14.4429 65.0049 14.4429C64.4399 14.4429 63.9872 14.2609 63.6965 13.9167C63.408 13.5758 63.3 13.0895 63.3912 12.5486C63.5665 11.4449 64.464 10.6738 65.5746 10.6738C66.128 10.6738 66.5765 10.8574 66.8734 11.2046C67.1719 11.5545 67.2894 12.0435 67.2039 12.5822ZM69.9192 8.78946H67.9709C67.8899 8.78936 67.8115 8.81823 67.7499 8.87086C67.6884 8.92348 67.6476 8.99639 67.6351 9.07641L67.5501 9.62093L67.4138 9.42368C66.992 8.81149 66.0514 8.60638 65.1124 8.60638C62.9606 8.60638 61.1219 10.2378 60.7636 12.525C60.5774 13.667 60.8423 14.7577 61.4896 15.5188C62.084 16.2181 62.9322 16.5092 63.9431 16.5092C65.679 16.5092 66.641 15.395 66.641 15.395L66.554 15.9364C66.5461 15.9848 66.5489 16.0343 66.5621 16.0814C66.5753 16.1286 66.5986 16.1724 66.6304 16.2096C66.6622 16.2469 66.7017 16.2768 66.7462 16.2973C66.7907 16.3178 66.8391 16.3284 66.8881 16.3283H68.6418C68.9198 16.3283 69.1569 16.1263 69.201 15.8509L70.2544 9.18185C70.262 9.1334 70.2589 9.08388 70.2456 9.0367C70.2322 8.98952 70.2087 8.94581 70.1768 8.90857C70.1449 8.87132 70.1053 8.84144 70.0607 8.82097C70.0162 8.8005 69.9677 8.78993 69.9186 8.78999" fill="#009CDE"/>
<path d="M51.276 8.78994H49.3172C49.13 8.78994 48.9553 8.88279 48.8504 9.03807L46.1488 13.0165L45.0036 9.19335C44.9686 9.07673 44.8971 8.97448 44.7995 8.90173C44.7019 8.82897 44.5834 8.78959 44.4617 8.78942H42.537C42.483 8.78944 42.4298 8.80234 42.3818 8.82704C42.3339 8.85173 42.2925 8.88752 42.2611 8.93143C42.2297 8.97533 42.2092 9.02609 42.2014 9.07948C42.1935 9.13288 42.1985 9.18738 42.2159 9.23846L44.372 15.5681L42.3439 18.4297C42.3081 18.4805 42.2869 18.5402 42.2827 18.6022C42.2784 18.6642 42.2913 18.7262 42.3199 18.7814C42.3484 18.8366 42.3916 18.8829 42.4447 18.9152C42.4978 18.9476 42.5588 18.9647 42.6209 18.9648H44.5776C44.7623 18.9648 44.9359 18.874 45.0419 18.7219L51.5541 9.32239C51.5894 9.27159 51.6102 9.21206 51.6141 9.15028C51.618 9.08851 51.605 9.02684 51.5763 8.97197C51.5477 8.91709 51.5045 8.87112 51.4516 8.83903C51.3987 8.80694 51.3379 8.78996 51.276 8.78994Z" fill="#003087"/>
<path d="M72.2154 5.31302L70.5451 15.9364C70.5375 15.9848 70.5405 16.0343 70.5539 16.0814C70.5672 16.1285 70.5907 16.1722 70.6225 16.2095C70.6544 16.2467 70.6939 16.2766 70.7384 16.2971C70.7829 16.3176 70.8313 16.3282 70.8803 16.3282H72.5595C72.8375 16.3282 73.0746 16.1258 73.1182 15.8509L74.7649 5.41794C74.7725 5.36951 74.7696 5.32001 74.7563 5.27283C74.7429 5.22565 74.7195 5.18192 74.6877 5.14467C74.6558 5.10741 74.6162 5.07752 74.5717 5.05704C74.5271 5.03657 74.4787 5.026 74.4296 5.02607H72.5506C72.4697 5.02587 72.3914 5.05464 72.3299 5.10719C72.2684 5.15973 72.2278 5.23309 72.2154 5.31302Z" fill="#009CDE"/>
<path d="M13.6837 1.43001C12.8056 0.429108 11.2182 -4.41352e-06 9.18752 -4.41352e-06H3.29382C3.09279 -0.00011142 2.89833 0.071532 2.74543 0.202031C2.59252 0.33253 2.49121 0.513315 2.45973 0.711857L0.00676992 16.2768C-0.00460408 16.349 -0.000189429 16.4228 0.01971 16.4932C0.0396094 16.5635 0.0745205 16.6287 0.122038 16.6842C0.169555 16.7398 0.228549 16.7844 0.294956 16.8149C0.361362 16.8455 0.433602 16.8612 0.506699 16.8612H4.14522L5.05904 11.0651L5.03072 11.2466C5.0616 11.0484 5.16223 10.8678 5.31448 10.7373C5.46673 10.6068 5.6606 10.5349 5.86113 10.5347H7.59016C10.9868 10.5347 13.6465 9.15505 14.4234 5.16401C14.4465 5.04598 14.4664 4.93109 14.4837 4.81883C14.7145 3.3437 14.4822 2.33964 13.6843 1.43054" fill="#003087"/>
<path d="M6.04054 4.83821C6.06811 4.66473 6.15661 4.50676 6.29015 4.39264C6.42369 4.27852 6.59353 4.21573 6.76919 4.21553H11.3897C11.9369 4.21553 12.4473 4.2512 12.9136 4.3257C13.1686 4.36672 13.4209 4.42313 13.669 4.49461C13.9509 4.57385 14.2236 4.68251 14.4827 4.81881C14.7145 3.34315 14.4816 2.33962 13.6837 1.42999C12.8051 0.429608 11.2182 0.000496864 9.18752 0.000496864H3.29329C3.09245 0.000639606 2.89824 0.0723946 2.74555 0.202871C2.59286 0.333348 2.4917 0.513996 2.46025 0.712359L0.00624246 16.2757C-0.00520852 16.3479 -0.000869298 16.4218 0.0189614 16.4921C0.0387921 16.5625 0.0736426 16.6277 0.121111 16.6833C0.16858 16.7389 0.227539 16.7835 0.293924 16.8142C0.360309 16.8448 0.432542 16.8606 0.505647 16.8606H4.14469L5.05852 11.064L6.04054 4.83821Z" fill="#003087"/>
<path d="M14.4831 4.81831C14.4651 4.93373 14.445 5.04881 14.4228 5.16349C13.6459 9.154 10.9862 10.5342 7.58952 10.5342H5.85997C5.65946 10.5343 5.46562 10.6062 5.31343 10.7367C5.16124 10.8672 5.06074 11.0479 5.03008 11.246L4.14458 16.8602L3.89278 18.4528C3.88277 18.516 3.88658 18.5807 3.90397 18.6423C3.92135 18.7039 3.95189 18.761 3.99348 18.8097C4.03507 18.8583 4.08671 18.8974 4.14486 18.9242C4.203 18.951 4.26626 18.9648 4.33028 18.9648H7.39753C7.76054 18.9648 8.069 18.7004 8.12618 18.3421L8.15608 18.1858L8.73417 14.5221L8.77089 14.3196C8.79837 14.146 8.88692 13.9879 9.02059 13.8737C9.15426 13.7596 9.32428 13.6969 9.50006 13.6969H9.95907C12.9303 13.6969 15.2569 12.4904 15.9367 8.99873C16.22 7.54038 16.0731 6.32177 15.3229 5.46618C15.0848 5.20091 14.8001 4.98136 14.4831 4.81831Z" fill="#009CDE"/>
<path d="M13.6695 4.49468C13.5509 4.45953 13.4287 4.42805 13.3028 4.40025C13.1769 4.37245 13.0468 4.34779 12.9135 4.32681C12.4467 4.25075 11.9368 4.21507 11.3891 4.21507H6.76909C6.59323 4.21486 6.42311 4.27757 6.28947 4.39187C6.15583 4.50617 6.06749 4.66452 6.04044 4.83828L5.05842 11.0651L5.03009 11.2461C5.06075 11.0479 5.16125 10.8673 5.31344 10.7367C5.46563 10.6062 5.65948 10.5344 5.85998 10.5342H7.58954C10.9862 10.5342 13.6459 9.15456 14.4228 5.16352C14.4459 5.04549 14.4653 4.93113 14.4831 4.81835C14.2779 4.71099 14.0642 4.6208 13.8442 4.54871C13.787 4.52982 13.7287 4.51251 13.6695 4.49468Z" fill="#012169"/>
</svg>
